<svg width="24" height="24" viewBox="0 0 24 24" xmlns="http://www.w3.org/2000/svg">
    <path d="m12.963 11.932-1.823 2.325-.963-1.228a.189.189 0 0 0-.23-.053.188.188 0 0 0-.066.053L7.542 16.01a.187.187 0 0 0 .148.303h8.622c.157 0 .244-.181.148-.303l-3.2-4.078a.19.19 0 0 0-.297 0zm-4.525-1.573a.937.937 0 1 0 1.874 0 .937.937 0 0 0-1.874 0zM20.03 6.764 14.986 1.72a.749.749 0 0 0-.53-.22H4.5a.75.75 0 0 0-.75.75v19.5c0 .415.335.75.75.75h15a.75.75 0 0 0 .75-.75V7.296c0-.2-.08-.391-.22-.532zm-1.51.877h-4.41V3.23l4.41 4.41zm.043 13.171H5.438V3.188h7.078V8.25a.984.984 0 0 0 .984.984h5.063v11.579z" fill="#FAFAFA" fill-rule="nonzero"/>
</svg>
