<svg width="24" height="24" viewBox="0 0 24 24" xmlns="http://www.w3.org/2000/svg">
    <g fill="none" fill-rule="evenodd">
        <path d="M11.99 2C6.482 2 2 6.482 2 11.99s4.482 9.99 9.99 9.99 9.99-4.482 9.99-9.99S17.497 2 11.99 2z" fill="#53C1B5"/>
        <path d="m17.573 9.36-6.385 6.335a.982.982 0 0 1-1.377.025l-3.38-3.08a1.015 1.015 0 0 1-.075-1.401.99.99 0 0 1 1.402-.05l2.68 2.453 5.708-5.708c.4-.4 1.026-.4 1.427 0 .4.4.4 1.026 0 1.427z" fill="#FAFAFA" fill-rule="nonzero"/>
    </g>
</svg>
