<svg xmlns="http://www.w3.org/2000/svg" width="18" height="16" viewBox="0 0 18 16">
    <g fill="none" fill-rule="evenodd">
        <g fill="#A6A6A6">
            <g>
                <path d="M10.358 9.77c.426-.436.665-1.028.665-1.644 0-.068-.003-.136-.009-.202l-2.458 2.518c.065.006.13.009.197.009.602 0 1.18-.245 1.605-.681zM15.4.049C15.37.017 15.328 0 15.285 0c-.043 0-.084.017-.115.049l-2.215 2.27c-1.222-.64-2.595-.96-4.12-.96-3.895 0-6.801 2.078-8.718 6.233C.04 7.76 0 7.942 0 8.127c0 .185.04.367.117.534.766 1.653 1.688 2.978 2.767 3.974L.74 14.83c-.03.032-.047.074-.047.118s.017.086.047.117l.865.886c.03.032.072.049.115.049.043 0 .084-.017.115-.049L16.265 1.17c.015-.016.027-.034.035-.054.009-.02.013-.042.013-.064s-.004-.043-.013-.064c-.008-.02-.02-.038-.035-.053L15.4.049zM15.28 4c1.005.952 1.872 2.183 2.6 3.693l.052.126c.045.128.068.262.068.398 0 .182-.04.36-.12.525-1.957 4.077-4.924 6.115-8.901 6.115-1.438 0-2.743-.267-3.917-.802l2.53-2.49c.657.248 1.373.303 2.062.159.688-.145 1.319-.482 1.816-.972.498-.49.84-1.11.987-1.788.147-.677.091-1.382-.16-2.029zm-6.616.473c.616-.015 1.225.132 1.769.43l-.986 1.009c-.397-.13-.822-.146-1.227-.046-.405.101-.776.314-1.071.616-.295.303-.503.682-.601 1.098-.099.415-.083.85.044 1.257l-.985 1.01c-.237-.454-.377-.953-.412-1.465l-.008-.256c0-.631.16-1.252.463-1.8.303-.55.74-1.009 1.269-1.334.528-.324 1.13-.503 1.745-.519z" transform="translate(-3.000000, -4.000000) translate(3.000000, 4.000000)"/>
            </g>
        </g>
    </g>
</svg>
