<svg xmlns="http://www.w3.org/2000/svg" width="32" height="32" viewBox="0 0 32 32">
    <g fill="#00818F" fill-rule="nonzero" stroke="#00818F" stroke-width=".5">
        <path d="M2.667 8.929v14.154a3.548 3.548 0 0 0 3.541 3.541h11.44a3.548 3.548 0 0 0 3.54-3.541V20.79a.7.7 0 1 0-1.402 0v2.293c0 1.18-.964 2.144-2.144 2.144H6.208a2.149 2.149 0 0 1-2.144-2.144V8.929c0-1.18.964-2.144 2.144-2.144h11.44c1.18 0 2.144.963 2.144 2.144v2.292a.7.7 0 1 0 1.403 0V8.93a3.548 3.548 0 0 0-3.542-3.541H6.208a3.545 3.545 0 0 0-3.541 3.54z"/>
        <path d="M24.645 21.28a.695.695 0 0 0 .496.206c.182 0 .36-.068.496-.205l4.784-4.785a.695.695 0 0 0 0-.986l-4.784-4.785a.695.695 0 0 0-.987 0 .695.695 0 0 0 0 .987l3.593 3.592h-13.11a.7.7 0 1 0 0 1.403h13.104L24.645 20.3a.688.688 0 0 0 0 .98z"/>
    </g>
</svg>
